<?xml version="1.0" encoding="utf-8"?>
<!-- Generator: Adobe Illustrator 25.4.1, SVG Export Plug-In . SVG Version: 6.00 Build 0)  -->
<svg version="1.1" id="Layer_1" xmlns="http://www.w3.org/2000/svg" xmlns:xlink="http://www.w3.org/1999/xlink" x="0px" y="0px"
	 viewBox="0 0 19.72 13.58" style="enable-background:new 0 0 19.72 13.58;" xml:space="preserve">
<style type="text/css">
	.st0{fill:none;stroke:#3C5AA9;stroke-width:0.8341;stroke-miterlimit:10;}
	.st1{fill:#3C5AA9;}
	.st2{fill:#9FBAE1;}
</style>
<g>
	<path class="st0" d="M18.09,13.16H8.29c-0.67,0-1.22-0.55-1.22-1.22V6.47c0-0.67,0.55-1.22,1.22-1.22h9.79
		c0.67,0,1.22,0.55,1.22,1.22v5.47C19.31,12.61,18.76,13.16,18.09,13.16z"/>
	<rect x="7.07" y="7.01" class="st1" width="12.23" height="1.74"/>
	<path class="st1" d="M14.29,10.5H8.9c-0.2,0-0.36-0.16-0.36-0.36v-0.02c0-0.2,0.16-0.36,0.36-0.36h5.38c0.2,0,0.36,0.16,0.36,0.36
		v0.02C14.65,10.34,14.48,10.5,14.29,10.5z"/>
	<path class="st1" d="M13.37,3.89H8c-1.28,0-2.32,1.04-2.32,2.33v4.76c0,0.07,0,0.13,0.01,0.19L3.6,11.92
		c-0.53,0.19-1.11-0.08-1.3-0.62L0.06,5.01c-0.18-0.53,0.09-1.11,0.62-1.3l10.25-3.65c0.53-0.18,1.11,0.09,1.29,0.62L13.37,3.89z"/>
	<path class="st2" d="M4.41,7.12L3.25,7.53C2.93,7.65,2.58,7.48,2.47,7.16l-0.29-0.8C2.07,6.05,2.23,5.7,2.55,5.59l1.16-0.42
		c0.32-0.11,0.67,0.05,0.78,0.37l0.29,0.8C4.89,6.65,4.73,7,4.41,7.12z"/>
	<path class="st2" d="M5.68,8.1v0.89l-1.94,0.7C3.53,9.77,3.28,9.65,3.2,9.43C3.18,9.39,3.18,9.34,3.18,9.3
		c0-0.18,0.11-0.34,0.28-0.4L5.68,8.1z"/>
</g>
</svg>
