<?xml version="1.0" encoding="utf-8"?>
<!-- Generator: Adobe Illustrator 25.4.1, SVG Export Plug-In . SVG Version: 6.00 Build 0)  -->
<svg version="1.1" id="Layer_1" xmlns="http://www.w3.org/2000/svg" xmlns:xlink="http://www.w3.org/1999/xlink" x="0px" y="0px"
	 viewBox="0 0 13.89 14.1" style="enable-background:new 0 0 13.89 14.1;" xml:space="preserve">
<style type="text/css">
	.st0{fill:none;stroke:#3C5AA9;stroke-width:0.8358;stroke-miterlimit:10;}
	.st1{fill:#3C5AA9;stroke:#DAE9F6;stroke-width:0.4759;stroke-miterlimit:10;}
	.st2{fill:#FFFFFF;}
	.st3{fill:none;stroke:#3C5AA9;stroke-width:0.8358;stroke-linecap:round;stroke-miterlimit:10;}
</style>
<g>
	<path class="st0" d="M11.95,12.73H3.83c-0.84,0-1.52-0.68-1.52-1.52V3.09c0-0.84,0.68-1.52,1.52-1.52h8.12
		c0.84,0,1.52,0.68,1.52,1.52v8.12C13.47,12.05,12.79,12.73,11.95,12.73z"/>
	<circle class="st1" cx="3.93" cy="10.17" r="3.69"/>
	<path class="st2" d="M4.66,8.87h0.78L5.19,9.26H4.67c0,0.1-0.03,0.26-0.13,0.42C4.48,9.8,4.41,9.87,4.37,9.92
		c-0.05,0.04-0.17,0.16-0.36,0.25c-0.19,0.1-0.36,0.13-0.49,0.15c-0.1,0.01-0.19,0.02-0.25,0.02c0.51,0.63,1.02,1.27,1.54,1.91v0.08
		H4.19c-0.54-0.63-1.07-1.26-1.6-1.91v-0.37c0.25,0.02,0.46,0,0.6-0.02C3.42,10,3.54,9.95,3.6,9.92c0.09-0.04,0.18-0.08,0.27-0.16
		C3.89,9.73,4,9.62,4.06,9.43c0.02-0.06,0.03-0.12,0.02-0.17H2.42l0.27-0.39h1.32C4.01,8.83,3.99,8.79,3.96,8.75
		C3.9,8.67,3.83,8.63,3.78,8.59C3.7,8.53,3.62,8.51,3.57,8.49c-0.11-0.04-0.2-0.05-0.28-0.06C3.22,8.42,3.14,8.41,3.04,8.41H2.45
		l0.26-0.39h2.73L5.19,8.41H4.45C4.5,8.48,4.56,8.56,4.6,8.66C4.63,8.73,4.65,8.8,4.66,8.87z"/>
	<line class="st0" x1="2.32" y1="4.38" x2="13.47" y2="4.38"/>
	<line class="st3" x1="5.06" y1="0" x2="5.06" y2="2.64"/>
	<line class="st3" x1="10.73" y1="0" x2="10.73" y2="2.64"/>
</g>
</svg>
