<?xml version="1.0" encoding="utf-8"?>
<!-- Generator: Adobe Illustrator 25.4.1, SVG Export Plug-In . SVG Version: 6.00 Build 0)  -->
<svg version="1.1" id="Layer_1" xmlns="http://www.w3.org/2000/svg" xmlns:xlink="http://www.w3.org/1999/xlink" x="0px" y="0px"
	 viewBox="0 0 8.53 8.68" style="enable-background:new 0 0 8.53 8.68;" xml:space="preserve">
<style type="text/css">
	.st0{fill:#E33F2D;}
	.st1{fill:#F0B51D;}
	.st2{fill:#2EA24B;}
	.st3{fill:#4D76BB;}
</style>
<g>
	<path class="st0" d="M7.24,1.12c-0.4,0.41-0.81,0.81-1.21,1.22C5.9,2.22,5.7,2.05,5.42,1.92C5.29,1.86,4.81,1.64,4.16,1.69
		c-0.68,0.05-1.15,0.35-1.35,0.5C2.25,2.6,2.01,3.12,1.92,3.35C1.91,3.38,1.89,3.42,1.87,3.48L0.45,2.39
		c0.01-0.01,0.01-0.03,0.02-0.04c0.17-0.33,0.7-1.26,1.82-1.86C2.48,0.39,3.3-0.02,4.43,0c0.96,0.02,1.65,0.34,1.8,0.42
		C6.69,0.65,7.02,0.91,7.24,1.12z"/>
	<path class="st1" d="M1.88,5.18L0.46,6.3C0.38,6.14,0.31,5.98,0.25,5.8c-0.59-1.66,0.05-3.09,0.21-3.41l1.42,1.09
		C1.79,3.73,1.67,4.24,1.8,4.86C1.81,4.93,1.84,5.04,1.88,5.18z"/>
	<path class="st2" d="M7.22,7.64C7.15,7.71,7.09,7.77,7.01,7.83C5.99,8.65,4.85,8.68,4.43,8.68C3.06,8.7,2.11,8.08,1.89,7.93
		C1.64,7.76,0.94,7.24,0.46,6.3l1.42-1.12c0.1,0.32,0.31,0.78,0.76,1.17C3.45,7.06,4.42,7,4.63,6.98C4.8,6.96,5.35,6.9,5.84,6.56
		L7.22,7.64z"/>
	<path class="st3" d="M8.31,5.83C8.2,6.19,7.94,6.97,7.22,7.64L5.84,6.56C5.94,6.5,6.03,6.42,6.12,6.34
		c0.12-0.12,0.46-0.45,0.56-0.98C6.69,5.3,6.7,5.25,6.7,5.22H4.35v-1.7h4.08C8.52,3.93,8.64,4.81,8.31,5.83z"/>
</g>
</svg>
