<?xml version="1.0" encoding="utf-8"?>
<!-- Generator: Adobe Illustrator 25.4.1, SVG Export Plug-In . SVG Version: 6.00 Build 0)  -->
<svg version="1.1" id="Layer_1" xmlns="http://www.w3.org/2000/svg" xmlns:xlink="http://www.w3.org/1999/xlink" x="0px" y="0px"
	 viewBox="0 0 16.14 17.33" style="enable-background:new 0 0 16.14 17.33;" xml:space="preserve">
<style type="text/css">
	.st0{fill:#3C5AA9;}
</style>
<g>
	<polygon class="st0" points="15.67,5.64 15.67,6.69 0.5,6.69 0.5,5.64 8.09,0 	"/>
	<rect x="1.67" y="7.44" class="st0" width="2.14" height="0.49"/>
	<rect x="5.2" y="7.44" class="st0" width="2.14" height="0.49"/>
	<rect x="8.81" y="7.44" class="st0" width="2.14" height="0.49"/>
	<rect x="12.36" y="7.44" class="st0" width="2.14" height="0.49"/>
	<rect x="1.67" y="13.91" class="st0" width="2.14" height="0.49"/>
	<rect x="5.2" y="13.91" class="st0" width="2.14" height="0.49"/>
	<rect x="8.81" y="13.91" class="st0" width="2.14" height="0.49"/>
	<rect x="12.36" y="13.91" class="st0" width="2.14" height="0.49"/>
	<rect x="1.96" y="7.75" class="st0" width="1.57" height="6.4"/>
	<rect x="5.48" y="7.75" class="st0" width="1.57" height="6.4"/>
	<rect x="9.09" y="7.75" class="st0" width="1.57" height="6.4"/>
	<rect x="12.61" y="7.75" class="st0" width="1.57" height="6.4"/>
	<path class="st0" d="M15.2,15.93H0.94c-0.09,0-0.17-0.07-0.17-0.17v-0.64c0-0.09,0.07-0.17,0.17-0.17H15.2
		c0.09,0,0.17,0.07,0.17,0.17v0.64C15.37,15.86,15.29,15.93,15.2,15.93z"/>
	<path class="st0" d="M15.9,17.33H0.24C0.11,17.33,0,17.22,0,17.09V16.6c0-0.13,0.11-0.24,0.24-0.24H15.9
		c0.13,0,0.24,0.11,0.24,0.24v0.49C16.14,17.22,16.03,17.33,15.9,17.33z"/>
</g>
</svg>
