<?xml version="1.0" encoding="utf-8"?>
<!-- Generator: Adobe Illustrator 25.4.1, SVG Export Plug-In . SVG Version: 6.00 Build 0)  -->
<svg version="1.1" id="Layer_1" xmlns="http://www.w3.org/2000/svg" xmlns:xlink="http://www.w3.org/1999/xlink" x="0px" y="0px"
	 viewBox="0 0 19.76 19.76" style="enable-background:new 0 0 19.76 19.76;" xml:space="preserve">
<style type="text/css">
	.st0{fill:#9FBAE1;}
	.st1{fill:#FFFFFF;}
</style>
<circle class="st0" cx="9.88" cy="9.88" r="9.88"/>
<path class="st1" d="M11.24,10.7c-2.51,0-4.54,1.1-4.54,2.47c0,1.36,2.03,2.47,4.54,2.47c2.51,0,4.55-1.1,4.55-2.47
	C15.78,11.8,13.75,10.7,11.24,10.7z M11.24,13.82c-1.96,0-3.54-0.67-3.54-1.49c0-0.08,0.01-0.15,0.04-0.23
	c0.26,0.71,1.73,1.26,3.5,1.26c1.77,0,3.24-0.55,3.5-1.26c0.03,0.07,0.04,0.15,0.04,0.23C14.78,13.15,13.19,13.82,11.24,13.82z
	 M7.29,7.04C4.97,6.51,2.85,7.11,2.57,8.37c-0.29,1.26,1.36,2.71,3.68,3.24c0.25,0.06,0.5,0.1,0.74,0.13
	c0.76-0.76,2.23-1.28,3.93-1.29c0.02-0.05,0.04-0.11,0.05-0.17C11.26,9.02,9.61,7.57,7.29,7.04z M10.22,9.3
	c-0.17,0.76-1.78,1.04-3.59,0.63C4.82,9.52,3.49,8.57,3.67,7.8c0.02-0.07,0.04-0.14,0.09-0.2c0.09,0.72,1.33,1.53,2.97,1.9
	c1.64,0.37,3.11,0.18,3.51-0.43C10.24,9.15,10.24,9.22,10.22,9.3z M15.42,6.32c-0.17-1.01-1.81-1.57-3.67-1.26
	c-1.68,0.28-2.96,1.19-3.06,2.1c1.01,0.4,1.8,0.99,2.22,1.61c0.45,0.04,0.94,0.02,1.45-0.07C14.22,8.39,15.58,7.32,15.42,6.32z
	 M12.14,7.37c-1.45,0.24-2.7-0.05-2.81-0.66c-0.01-0.06-0.01-0.11,0-0.17c0.28,0.5,1.44,0.72,2.75,0.5
	c1.31-0.22,2.33-0.81,2.43-1.37c0.03,0.05,0.05,0.11,0.06,0.16C14.67,6.43,13.58,7.12,12.14,7.37z"/>
</svg>
