<?xml version="1.0" encoding="utf-8"?>
<!-- Generator: Adobe Illustrator 25.4.1, SVG Export Plug-In . SVG Version: 6.00 Build 0)  -->
<svg version="1.1" id="Layer_1" xmlns="http://www.w3.org/2000/svg" xmlns:xlink="http://www.w3.org/1999/xlink" x="0px" y="0px"
	 viewBox="0 0 7.72 12.56" style="enable-background:new 0 0 7.72 12.56;" xml:space="preserve">
<style type="text/css">
	.st0{fill:#9FBAE1;}
	.st1{fill:#FFFFFF;}
</style>
<g>
	<path class="st0" d="M7.64,4.71C7.59,4.92,7.54,5.08,7.45,5.35C7.22,6.07,6.97,6.59,6.86,6.82c-0.96,1.99-1.62,3.23-1.62,3.23
		c-0.35,0.66-0.82,1.52-1.38,2.52c0,0,0,0,0,0c-0.56-1-1.03-1.86-1.39-2.52c0,0-0.66-1.23-1.62-3.23C0.75,6.59,0.5,6.07,0.27,5.35
		C0.18,5.08,0.13,4.92,0.09,4.71C0.04,4.5-0.11,3.75,0.14,2.86c0.3-1.08,1.01-1.73,1.31-1.97C2.44,0.08,3.51,0.01,3.86,0
		c0.35,0.01,1.42,0.08,2.42,0.89c0.29,0.24,1.01,0.89,1.31,1.97C7.83,3.74,7.68,4.49,7.64,4.71z"/>
	<circle class="st1" cx="3.86" cy="3.98" r="2.36"/>
</g>
</svg>
