<?xml version="1.0" encoding="utf-8"?>
<!-- Generator: Adobe Illustrator 25.4.1, SVG Export Plug-In . SVG Version: 6.00 Build 0)  -->
<svg version="1.1" id="Layer_1" xmlns="http://www.w3.org/2000/svg" xmlns:xlink="http://www.w3.org/1999/xlink" x="0px" y="0px"
	 viewBox="0 0 11.6 14" style="enable-background:new 0 0 11.6 14;" xml:space="preserve">
<style type="text/css">
	.st0{fill:none;stroke:#3C5AA9;stroke-width:0.8521;stroke-miterlimit:10;}
	.st1{fill:#3C5AA9;}
	.st2{fill:none;stroke:#3C5AA9;stroke-width:1.4382;stroke-miterlimit:10;}
	.st3{fill:none;stroke:#3C5AA9;stroke-width:0.8502;stroke-linecap:round;stroke-miterlimit:10;}
</style>
<g>
	<path class="st0" d="M9.65,13.57H1.94c-0.84,0-1.52-0.68-1.52-1.52v-9c0-0.84,0.68-1.52,1.52-1.52h7.71c0.84,0,1.52,0.68,1.52,1.52
		v9C11.17,12.9,10.49,13.57,9.65,13.57z"/>
	<path class="st1" d="M6.65,7.56h1.02L7.34,8.07H6.66c0,0.13-0.04,0.34-0.17,0.55c-0.08,0.14-0.17,0.24-0.22,0.3
		C6.2,8.98,6.04,9.13,5.79,9.25c-0.25,0.13-0.47,0.17-0.64,0.2C5.02,9.46,4.9,9.48,4.82,9.48c0.67,0.83,1.34,1.67,2.02,2.49v0.11
		H6.03c-0.71-0.83-1.4-1.65-2.1-2.49V9.1c0.33,0.03,0.6,0,0.79-0.03c0.3-0.04,0.46-0.11,0.54-0.14c0.12-0.05,0.24-0.11,0.35-0.21
		c0.03-0.04,0.17-0.18,0.25-0.42C5.88,8.22,5.9,8.14,5.88,8.07H3.72l0.35-0.51h1.73C5.79,7.51,5.77,7.45,5.73,7.4
		C5.65,7.3,5.56,7.24,5.49,7.19C5.39,7.11,5.28,7.09,5.21,7.06C5.07,7.01,4.95,6.99,4.85,6.98C4.77,6.97,4.66,6.95,4.53,6.95H3.76
		L4.1,6.44h3.57L7.34,6.95H6.37c0.07,0.09,0.14,0.2,0.2,0.33C6.61,7.37,6.63,7.47,6.65,7.56z"/>
	<line class="st2" x1="0.43" y1="4.57" x2="11.17" y2="4.57"/>
	<line class="st3" x1="2.74" y1="0" x2="2.74" y2="2.53"/>
	<line class="st3" x1="8.86" y1="0" x2="8.86" y2="2.53"/>
</g>
</svg>
