<?xml version="1.0" encoding="utf-8"?>
<!-- Generator: Adobe Illustrator 25.4.1, SVG Export Plug-In . SVG Version: 6.00 Build 0)  -->
<svg version="1.1" id="Layer_1" xmlns="http://www.w3.org/2000/svg" xmlns:xlink="http://www.w3.org/1999/xlink" x="0px" y="0px"
	 viewBox="0 0 12.97 10.75" style="enable-background:new 0 0 12.97 10.75;" xml:space="preserve">
<style type="text/css">
	.st0{fill:#4E5252;}
	.st1{fill:#FFFFFF;}
	.st2{fill:#3C5AA9;}
	.st3{fill:#9FBAE1;}
</style>
<g>
	<path class="st0" d="M9.1,10.75H8.98V0L9.1,0c2.09,0,3.79,1.7,3.79,3.79v3.17C12.89,9.06,11.2,10.75,9.1,10.75z"/>
	<path class="st1" d="M8.69,10.75H1.57C0.7,10.75,0,10.05,0,9.18v-7.6C0,0.7,0.7,0,1.57,0l7.12,0c2.14,0,3.87,1.73,3.87,3.87v3
		C12.57,9.02,10.83,10.75,8.69,10.75z"/>
	<path class="st2" d="M12.97,6.74H8.75C7.83,6.74,7.09,6,7.09,5.08v-0.1c0-0.92,0.74-1.66,1.66-1.66h4.23V6.74z"/>
	<circle class="st1" cx="8.77" cy="5" r="0.7"/>
	<circle class="st3" cx="8.77" cy="5" r="0.4"/>
</g>
</svg>
