<?xml version="1.0" encoding="utf-8"?>
<!-- Generator: Adobe Illustrator 25.4.1, SVG Export Plug-In . SVG Version: 6.00 Build 0)  -->
<svg version="1.1" id="Layer_1" xmlns="http://www.w3.org/2000/svg" xmlns:xlink="http://www.w3.org/1999/xlink" x="0px" y="0px"
	 viewBox="0 0 16.07 20.16" style="enable-background:new 0 0 16.07 20.16;" xml:space="preserve">
<style type="text/css">
	.st0{fill:#9FBAE1;}
</style>
<g>
	<path class="st0" d="M14.78,12.61l-3.16-3.18c-0.21,0.18-0.42,0.34-0.65,0.49l3.24,3.25c1.4,1.41,1.4,3.71,0,5.12
		c-0.68,0.68-1.59,1.06-2.55,1.06c-0.96,0-1.87-0.38-2.55-1.06l-3.34-3.35l3.37-3.38c0.16-0.16,0.16-0.41,0-0.57
		c-0.16-0.16-0.41-0.16-0.57,0L5.2,14.38l-3.34-3.35c-1.37-1.37-1.4-3.59-0.1-5.01c-0.06-0.32-0.1-0.66-0.11-1
		c-0.13,0.1-0.25,0.21-0.36,0.32c-1.72,1.73-1.72,4.53,0,6.26l7.24,7.26c0.83,0.84,1.94,1.3,3.12,1.3c1.18,0,2.29-0.46,3.12-1.3
		C16.5,17.15,16.5,14.34,14.78,12.61z"/>
	<path class="st0" d="M8.18,5.92v0.85c0,0.17,0.14,0.31,0.31,0.31c0.17,0,0.31-0.14,0.31-0.31V5.46c0-0.17-0.14-0.32-0.32-0.32
		c-0.07,0-0.15,0.03-0.21,0.08C8.2,5.28,8.11,5.33,8.04,5.36C7.93,5.4,7.86,5.51,7.86,5.63c0,0.1,0.05,0.19,0.13,0.24
		C8.04,5.91,8.11,5.93,8.18,5.92z"/>
	<path class="st0" d="M9.62,6.01C9.21,6.32,9.11,6.6,9.09,6.78C9.08,6.85,9.1,6.93,9.16,6.99c0.05,0.06,0.13,0.09,0.21,0.09h0.85
		c0.15,0,0.27-0.1,0.29-0.25c0.01-0.09-0.01-0.17-0.07-0.24c-0.06-0.07-0.14-0.11-0.23-0.11l-0.23,0C9.99,6.48,10,6.47,10,6.46
		c0.27-0.22,0.45-0.36,0.45-0.7c0-0.31-0.21-0.64-0.67-0.64c-0.34,0-0.59,0.19-0.68,0.5C9.09,5.72,9.11,5.81,9.17,5.89
		c0.06,0.08,0.15,0.12,0.24,0.12c0.14,0,0.26-0.09,0.29-0.23c0.02-0.06,0.02-0.07,0.09-0.07c0.03,0,0.04,0.01,0.04,0.01
		c0,0,0.01,0.02,0.01,0.05C9.84,5.83,9.84,5.84,9.62,6.01z"/>
	<path class="st0" d="M5.98,7.02c1.05,0,1.65-0.49,1.65-1.34c0-0.48-0.24-0.83-0.66-1.02c0.27-0.19,0.41-0.49,0.41-0.85
		c0-0.43-0.19-1.14-1.48-1.14H5.02c-0.17,0-0.31,0.14-0.31,0.31v3.73c0,0.17,0.14,0.31,0.31,0.31H5.98z M5.34,3.27h0.48
		c0.86,0,0.94,0.29,0.94,0.57c0,0.31-0.12,0.6-0.97,0.6H5.34V3.27z M5.34,5.02h0.57c1.1,0,1.1,0.5,1.1,0.67
		c0,0.32-0.11,0.75-1.1,0.75H5.34V5.02z"/>
	<path class="st0" d="M7.68,9.69c2.66,0,4.83-2.17,4.83-4.85C12.51,2.17,10.35,0,7.68,0S2.86,2.17,2.86,4.84
		C2.86,7.52,5.02,9.69,7.68,9.69z M7.68,0.78c2.23,0,4.05,1.83,4.05,4.07S9.92,8.92,7.68,8.92c-2.23,0-4.05-1.83-4.05-4.07
		S5.45,0.78,7.68,0.78z"/>
</g>
</svg>
