<?xml version="1.0" encoding="utf-8"?>
<!-- Generator: Adobe Illustrator 25.4.1, SVG Export Plug-In . SVG Version: 6.00 Build 0)  -->
<svg version="1.1" id="Layer_1" xmlns="http://www.w3.org/2000/svg" xmlns:xlink="http://www.w3.org/1999/xlink" x="0px" y="0px"
	 viewBox="0 0 20.06 11.12" style="enable-background:new 0 0 20.06 11.12;" xml:space="preserve">
<style type="text/css">
	.st0{fill:none;stroke:#3C5AA9;stroke-width:0.5711;stroke-miterlimit:10;}
	.st1{fill:#9FBAE1;}
	.st2{fill:none;stroke:#3C5AA9;stroke-width:0.5711;stroke-linecap:round;stroke-miterlimit:10;}
	.st3{fill:#3C5AA9;}
</style>
<g>
	<g>
		<path class="st0" d="M18.98,5.79h-0.76c-0.44,0-0.8-0.36-0.8-0.8V1.09c0-0.44,0.36-0.8,0.8-0.8h0.76c0.44,0,0.8,0.36,0.8,0.8V5
			C19.78,5.44,19.42,5.79,18.98,5.79z"/>
		<path class="st0" d="M17.42,5.13c-0.59,0-1.18,0-1.77,0c-0.09,0.14-0.22,0.34-0.4,0.55c-0.29,0.35-0.63,0.76-1.17,1.02
			C13.71,6.88,13.4,6.91,13,6.95C12.64,6.99,12.1,7,11.46,6.87"/>
		<path class="st1" d="M12.29,4.64v6.21c0,0.15-0.12,0.27-0.28,0.27H0.27C0.11,11.12,0,11,0,10.85V4.64c0-0.15,0.11-0.28,0.27-0.28
			H9.1c-0.49,1-0.76,1.53-0.93,1.84c-0.03,0.06-0.15,0.27-0.3,0.57c-0.19,0.38-0.3,0.66-0.35,0.8C7.39,7.94,7.31,8.13,7.3,8.39
			C7.29,8.6,7.28,8.8,7.42,8.97C7.55,9.13,7.76,9.18,7.89,9.2c0.17,0.03,0.3,0.02,0.49,0C8.69,9.17,8.92,9.14,9.19,9
			C9.43,8.86,9.58,8.7,9.7,8.57c0.18-0.21,0.3-0.4,0.33-0.48c0.21-0.39,0.96-1.79,1.96-3.72h0.02C12.17,4.37,12.29,4.49,12.29,4.64z
			"/>
		<path class="st2" d="M14.9,3.47c-0.16,0.25-0.49,0.63-1,0.83c-0.38,0.13-0.73,0.13-1.05,0.12c-0.34-0.01-0.63-0.06-0.83-0.1
			C12.01,4.34,12,4.35,11.99,4.37c-1,1.93-1.75,3.33-1.96,3.72C9.99,8.17,9.88,8.36,9.7,8.57C9.58,8.7,9.43,8.86,9.19,9
			C8.92,9.14,8.69,9.17,8.38,9.2c-0.19,0.02-0.31,0.03-0.49,0C7.76,9.18,7.55,9.13,7.42,8.97C7.28,8.8,7.29,8.6,7.3,8.39
			c0.01-0.26,0.09-0.45,0.22-0.81c0.06-0.14,0.16-0.42,0.35-0.8c0.14-0.3,0.27-0.51,0.3-0.57C8.34,5.9,8.61,5.37,9.1,4.37
			c0.04-0.09,0.09-0.18,0.13-0.29c-1.62,0-3.25,0-4.87,0c0.08-0.08,1.79-1.87,2.36-2.45c0.04-0.03,0.11-0.11,0.24-0.2
			C7.39,1.09,7.82,1,7.92,0.98c0.13-0.02,0.33-0.03,0.72-0.04c0.28,0,0.51,0,0.68,0c2.7,0,5.41,0,8.11,0"/>
	</g>
	<g>
		<path class="st3" d="M3.8,6.58h0.8l-0.26,0.4H3.81c0,0.1-0.03,0.27-0.13,0.43C3.61,7.52,3.54,7.59,3.5,7.65
			C3.45,7.69,3.33,7.81,3.13,7.9C2.94,8,2.77,8.03,2.63,8.05c-0.1,0.01-0.19,0.02-0.26,0.02c0.52,0.64,1.04,1.3,1.57,1.94v0.08H3.32
			C2.77,9.45,2.22,8.81,1.68,8.16V7.78c0.26,0.02,0.47,0,0.61-0.02c0.23-0.03,0.36-0.08,0.42-0.11C2.81,7.6,2.9,7.56,2.99,7.48
			c0.02-0.03,0.13-0.14,0.19-0.33C3.2,7.09,3.21,7.03,3.2,6.98H1.52l0.28-0.4h1.35C3.13,6.54,3.11,6.5,3.08,6.46
			C3.02,6.38,2.95,6.34,2.9,6.3C2.82,6.24,2.73,6.22,2.68,6.2C2.57,6.16,2.48,6.15,2.4,6.13C2.34,6.12,2.25,6.11,2.15,6.11h-0.6
			l0.27-0.4h2.78l-0.26,0.4H3.58c0.05,0.07,0.11,0.15,0.15,0.26C3.77,6.44,3.79,6.51,3.8,6.58z"/>
	</g>
</g>
</svg>
