<?xml version="1.0" encoding="utf-8"?>
<!-- Generator: Adobe Illustrator 25.4.1, SVG Export Plug-In . SVG Version: 6.00 Build 0)  -->
<svg version="1.1" id="Layer_1" xmlns="http://www.w3.org/2000/svg" xmlns:xlink="http://www.w3.org/1999/xlink" x="0px" y="0px"
	 viewBox="0 0 22.99 18.24" style="enable-background:new 0 0 22.99 18.24;" xml:space="preserve">
<style type="text/css">
	.st0{fill:#9FBAE1;}
	.st1{opacity:0.6;fill:#ED2224;}
</style>
<g>
	<path class="st0" d="M12.38,11.68h2.3c0.4,0,0.77-0.16,1.06-0.44c0.28-0.28,0.44-0.66,0.44-1.05c0-0.82-0.67-1.49-1.49-1.49h-2.3
		c-0.08,0-0.15-0.07-0.15-0.15c0-0.08,0.07-0.15,0.15-0.15h8.47c0.8,0,1.46-0.65,1.46-1.46V6.87c0-0.8-0.65-1.46-1.46-1.46H8.11
		c-0.06,0-0.12-0.04-0.14-0.1c-0.02-0.06,0-0.12,0.04-0.16l3-2.59c0.29-0.25,0.43-0.6,0.43-0.95c0-0.29-0.1-0.58-0.3-0.82
		l-0.32-0.37C10.61,0.18,10.31,0.03,9.97,0C9.64-0.02,9.32,0.08,9.07,0.3L2.53,5.92c-0.01,0-0.01,0.01-0.02,0.01
		C1.04,6.87,0,8.67,0,10.32v3.01c0,2.71,2.2,4.91,4.91,4.91h7.96c0.77,0,1.39-0.62,1.39-1.39v-0.2c0-0.77-0.62-1.39-1.39-1.39h-0.49
		c-0.08,0-0.15-0.07-0.15-0.15c0-0.08,0.07-0.15,0.15-0.15h2.3c0.4,0,0.77-0.16,1.06-0.44c0.28-0.28,0.44-0.66,0.44-1.05
		c0-0.82-0.67-1.49-1.49-1.49h-2.3c-0.08,0-0.15-0.07-0.15-0.15C12.23,11.75,12.3,11.68,12.38,11.68z"/>
	<path class="st1" d="M22.85,14.49l-1.37-4.1c-0.05-0.16-0.28-0.16-0.34,0l-1.37,4.1c-0.11,0.25-0.16,0.53-0.14,0.83
		c0.07,0.82,0.75,1.48,1.57,1.53c0.98,0.06,1.79-0.72,1.79-1.68C22.99,14.92,22.94,14.69,22.85,14.49z"/>
</g>
</svg>
