<?xml version="1.0" encoding="utf-8"?>
<!-- Generator: Adobe Illustrator 25.4.1, SVG Export Plug-In . SVG Version: 6.00 Build 0)  -->
<svg version="1.1" id="Layer_1" xmlns="http://www.w3.org/2000/svg" xmlns:xlink="http://www.w3.org/1999/xlink" x="0px" y="0px"
	 viewBox="0 0 8.68 8.68" style="enable-background:new 0 0 8.68 8.68;" xml:space="preserve">
<style type="text/css">
	.st0{fill:#B0B0B0;}
	.st1{fill:#395297;}
	.st2{fill:#FFFFFF;}
</style>
<g>
	<g>
		<path id="XMLID_00000029020657259029391820000004336788593618092720_" class="st0" d="M8.68,4.34C8.68,1.94,6.74,0,4.34,0
			C1.94,0,0,1.94,0,4.34c0,2.4,1.94,4.34,4.34,4.34C6.74,8.68,8.68,6.74,8.68,4.34z"/>
	</g>
	<g>
		<path id="XMLID_6_" class="st1" d="M8.68,4.34C8.68,1.94,6.74,0,4.34,0C1.94,0,0,1.94,0,4.34c0,2.4,1.94,4.34,4.34,4.34
			C6.74,8.68,8.68,6.74,8.68,4.34z"/>
		<path id="XMLID_5_" class="st2" d="M4.72,3.31V2.9c0-0.2,0.13-0.25,0.23-0.25c0.09,0,0.58,0,0.58,0V1.77l-0.79,0
			c-0.88,0-1.08,0.66-1.08,1.08v0.46H3.14v1.03h0.51c0,1.17,0,2.57,0,2.57h1.03c0,0,0-1.42,0-2.57h0.76l0.09-1.03H4.72z"/>
	</g>
</g>
</svg>
