<?xml version="1.0" encoding="utf-8"?>
<!-- Generator: Adobe Illustrator 25.4.1, SVG Export Plug-In . SVG Version: 6.00 Build 0)  -->
<svg version="1.1" id="Layer_1" xmlns="http://www.w3.org/2000/svg" xmlns:xlink="http://www.w3.org/1999/xlink" x="0px" y="0px"
	 viewBox="0 0 23.34 22.27" style="enable-background:new 0 0 23.34 22.27;" xml:space="preserve">
<style type="text/css">
	.st0{fill:#9FBAE1;}
	.st1{fill:#FFFFFF;}
</style>
<g id="_x31__2_">
	<path class="st0" d="M22.64,12.01c-0.15-0.03-0.3-0.02-0.44,0.02c-0.18,0.04-0.78,0.14-1.38,0.01c-0.64-0.14-1.13-0.63-1.29-0.88
		c0.01-0.11,0.01-0.22,0.01-0.33c0.15-0.1,0.36-0.19,0.59-0.2c0.35-0.02,0.68,0.09,0.79,0.13c0.08,0.04,0.16,0.06,0.25,0.06
		c0.28-0.01,0.49-0.25,0.48-0.53c-0.01-0.28-0.25-0.49-0.53-0.48c-0.09,0-0.17,0.03-0.24,0.07c-0.1,0.05-0.42,0.19-0.78,0.2
		c-0.23,0.01-0.44-0.06-0.6-0.15c-0.02-0.19-0.04-0.37-0.08-0.56c0.12-0.26,0.56-0.84,1.21-1.06c0.58-0.2,1.19-0.18,1.39-0.17
		c0.15,0.03,0.3,0.02,0.46-0.03c0.46-0.16,0.71-0.66,0.56-1.12c-0.16-0.46-0.66-0.71-1.12-0.56c-0.15,0.05-0.28,0.14-0.37,0.24
		c-0.14,0.12-0.62,0.52-1.22,0.71c-0.65,0.21-1.35,0.01-1.6-0.12c-0.09-0.18-0.19-0.35-0.29-0.52c0.06-0.09,0.14-0.18,0.24-0.24
		c0.22-0.15,0.48-0.21,0.56-0.22c0.06,0,0.13-0.02,0.19-0.06c0.18-0.12,0.22-0.35,0.11-0.53c-0.12-0.18-0.35-0.22-0.53-0.11
		c-0.06,0.04-0.1,0.09-0.13,0.14c-0.04,0.07-0.2,0.29-0.43,0.43c-0.1,0.06-0.21,0.1-0.32,0.12c-0.13-0.18-0.27-0.36-0.41-0.53
		c0.04-0.24,0.16-0.58,0.4-0.83c0.3-0.31,0.69-0.5,0.82-0.55c0.1-0.03,0.2-0.08,0.28-0.16c0.24-0.25,0.24-0.64-0.01-0.88
		c-0.25-0.24-0.64-0.24-0.88,0.01c-0.08,0.08-0.13,0.17-0.16,0.27c-0.05,0.12-0.22,0.53-0.54,0.84c-0.25,0.25-0.58,0.37-0.82,0.41
		c-0.15-0.12-0.3-0.24-0.45-0.35c-0.1-0.25-0.23-1.03,0.09-1.69c0.28-0.58,0.74-1.01,0.9-1.14c0.13-0.09,0.24-0.21,0.31-0.35
		c0.23-0.45,0.04-1-0.41-1.23c-0.45-0.23-1-0.04-1.23,0.41c-0.07,0.15-0.1,0.3-0.1,0.45c-0.01,0.19-0.07,0.83-0.37,1.41
		c-0.34,0.65-1.04,1.03-1.3,1.09c-0.3-0.1-0.61-0.17-0.92-0.23c-0.09-0.19-0.17-0.46-0.14-0.73c0.04-0.38,0.21-0.72,0.27-0.83
		c0.06-0.08,0.09-0.17,0.1-0.27c0.03-0.3-0.18-0.58-0.49-0.61c-0.3-0.03-0.58,0.18-0.61,0.49c-0.01,0.1,0,0.19,0.04,0.28
		c0.03,0.11,0.13,0.49,0.08,0.88c-0.03,0.27-0.17,0.51-0.3,0.68c-0.43-0.02-0.86,0-1.29,0.05c-0.23-0.18-0.56-0.54-0.68-1
		c-0.13-0.5-0.06-1.01-0.04-1.17c0.04-0.12,0.04-0.25,0.01-0.38c-0.1-0.4-0.49-0.64-0.89-0.55c-0.4,0.1-0.64,0.49-0.55,0.89
		C8.86,1.09,8.92,1.2,9,1.29c0.09,0.13,0.39,0.55,0.5,1.06c0.11,0.47-0.03,0.94-0.15,1.2C9.18,3.62,9,3.69,8.83,3.77c0,0,0,0,0,0
		C8.6,3.76,7.77,3.46,7.31,2.8C6.94,2.25,6.79,1.61,6.75,1.4C6.74,1.24,6.69,1.08,6.6,0.93C6.31,0.5,5.72,0.38,5.28,0.67
		C4.84,0.96,4.72,1.55,5.01,1.99C5.1,2.13,5.23,2.24,5.37,2.31c0.17,0.11,0.71,0.5,1.08,1.07c0.44,0.68,0.38,1.55,0.3,1.77
		c0,0,0,0,0,0c-0.07,0.06-0.14,0.13-0.2,0.19c-0.12-0.04-0.25-0.1-0.36-0.2C5.97,4.95,5.84,4.69,5.8,4.61
		C5.78,4.54,5.74,4.48,5.68,4.43C5.51,4.27,5.25,4.28,5.1,4.45C4.94,4.62,4.95,4.89,5.12,5.04c0.05,0.05,0.12,0.08,0.19,0.1
		c0.08,0.03,0.35,0.14,0.57,0.34c0.11,0.1,0.18,0.23,0.23,0.34C5.96,6,5.82,6.18,5.68,6.37C5.46,6.38,5.15,6.35,4.89,6.2
		C4.53,5.99,4.28,5.68,4.2,5.58C4.15,5.49,4.08,5.42,3.99,5.36C3.71,5.2,3.36,5.29,3.19,5.57C3.03,5.85,3.12,6.2,3.4,6.37
		c0.09,0.05,0.19,0.08,0.28,0.08c0.12,0.02,0.53,0.08,0.88,0.3C4.82,6.9,5,7.16,5.1,7.36C5.01,7.55,4.93,7.74,4.85,7.93
		C4.6,8.08,3.96,8.31,3.34,8.17C2.76,8.04,2.27,7.71,2.12,7.59c-0.11-0.1-0.24-0.17-0.39-0.21C1.27,7.27,0.8,7.56,0.69,8.02
		C0.58,8.48,0.87,8.94,1.33,9.05c0.15,0.04,0.3,0.03,0.43-0.01c0.18-0.03,0.77-0.11,1.36,0.04c0.62,0.16,1.08,0.65,1.24,0.9
		c-0.02,0.2-0.03,0.41-0.04,0.61c0,0,0,0,0,0c-0.11,0.21-0.72,0.84-1.52,0.97c-0.65,0.11-1.3-0.03-1.5-0.08
		c-0.15-0.06-0.32-0.08-0.49-0.06c-0.52,0.08-0.88,0.56-0.8,1.08c0.08,0.52,0.56,0.88,1.08,0.8c0.17-0.03,0.32-0.09,0.44-0.19
		c0.17-0.1,0.75-0.43,1.42-0.53c0.8-0.11,1.57,0.31,1.73,0.48c0,0,0,0,0,0c0.09,0.27,0.19,0.54,0.32,0.81
		c-0.1,0.18-0.28,0.4-0.52,0.54c-0.34,0.19-0.72,0.24-0.84,0.25c-0.09,0-0.19,0.02-0.28,0.07C3.1,14.88,3,15.21,3.15,15.48
		c0.15,0.27,0.48,0.37,0.75,0.22c0.09-0.05,0.16-0.11,0.2-0.19c0.07-0.09,0.33-0.39,0.67-0.57c0.25-0.13,0.52-0.16,0.73-0.14
		c0.02,0.04,0.05,0.08,0.07,0.12c0.14,0.21,0.28,0.4,0.43,0.59c0,0,0,0-0.01,0c0.05,0.23-0.02,1.11-0.54,1.72
		c-0.43,0.5-1.01,0.81-1.21,0.9c-0.15,0.05-0.29,0.14-0.41,0.27c-0.35,0.39-0.31,1,0.08,1.34c0.39,0.35,1,0.31,1.34-0.08
		c0.11-0.13,0.18-0.27,0.22-0.43c0.06-0.19,0.3-0.82,0.75-1.32c0.53-0.58,1.37-0.76,1.62-0.75c0.05,0.27,0.06,0.7-0.13,1.08
		C7.54,18.68,7.19,19,7.07,19.1c-0.1,0.07-0.18,0.16-0.24,0.27c-0.17,0.34-0.03,0.76,0.31,0.93c0.34,0.17,0.76,0.03,0.93-0.31
		c0.05-0.11,0.08-0.23,0.07-0.34c0.01-0.15,0.06-0.63,0.28-1.07c0.19-0.38,0.55-0.63,0.79-0.75c0.24,0.09,0.49,0.17,0.75,0.24
		c0.06,0.17,0.09,0.4,0.05,0.62c-0.07,0.34-0.25,0.64-0.31,0.73c-0.06,0.06-0.1,0.14-0.12,0.23c-0.06,0.27,0.12,0.54,0.39,0.59
		c0.27,0.06,0.54-0.12,0.59-0.39c0.02-0.09,0.01-0.17-0.01-0.25c-0.02-0.1-0.08-0.45,0-0.8c0.05-0.22,0.17-0.41,0.29-0.55
		c0.16,0.02,0.32,0.04,0.47,0.05c0.22,0.2,0.63,0.74,0.68,1.38c0.04,0.6-0.13,1.17-0.19,1.35c-0.06,0.13-0.1,0.28-0.09,0.44
		c0.03,0.47,0.44,0.84,0.91,0.81c0.47-0.03,0.84-0.44,0.81-0.91c-0.01-0.15-0.06-0.29-0.14-0.41c-0.08-0.16-0.33-0.71-0.36-1.32
		c-0.03-0.64,0.31-1.23,0.5-1.45c0.19-0.04,0.38-0.09,0.58-0.14c0.09,0.1,0.18,0.22,0.23,0.37c0.1,0.28,0.09,0.57,0.08,0.67
		c-0.01,0.07-0.01,0.15,0.01,0.22c0.07,0.22,0.32,0.34,0.54,0.27c0.22-0.07,0.34-0.32,0.27-0.54c-0.02-0.07-0.07-0.13-0.12-0.18
		c-0.06-0.07-0.25-0.3-0.34-0.58c-0.05-0.15-0.05-0.3-0.03-0.43c0.12-0.05,0.25-0.1,0.37-0.15c0,0,0,0,0,0
		c0.23,0.01,1.06,0.3,1.52,0.97c0.37,0.55,0.52,1.19,0.56,1.4c0.01,0.16,0.06,0.32,0.16,0.47c0.29,0.44,0.88,0.56,1.32,0.27
		s0.56-0.88,0.27-1.32c-0.09-0.14-0.22-0.25-0.36-0.32c-0.17-0.11-0.71-0.5-1.08-1.07c-0.44-0.68-0.38-1.55-0.3-1.77c0,0,0,0,0,0
		c0.11-0.1,0.21-0.2,0.31-0.3c0.11,0.04,0.23,0.09,0.34,0.18c0.21,0.18,0.34,0.43,0.38,0.51c0.02,0.06,0.06,0.12,0.11,0.17
		c0.17,0.15,0.42,0.13,0.57-0.03c0.15-0.17,0.13-0.42-0.03-0.57c-0.05-0.05-0.12-0.08-0.18-0.09c-0.08-0.03-0.34-0.13-0.56-0.32
		c-0.1-0.09-0.17-0.2-0.22-0.31c0.13-0.16,0.25-0.32,0.37-0.49c0.25-0.03,0.63,0,0.95,0.17c0.39,0.22,0.68,0.56,0.77,0.67
		c0.06,0.09,0.14,0.17,0.24,0.23c0.31,0.17,0.7,0.07,0.88-0.24s0.07-0.7-0.24-0.88c-0.1-0.06-0.21-0.08-0.31-0.08
		c-0.13-0.02-0.58-0.08-0.97-0.31c-0.32-0.19-0.53-0.5-0.64-0.72c0.09-0.19,0.17-0.39,0.24-0.59c0.24-0.16,0.89-0.42,1.53-0.3
		c0.6,0.11,1.1,0.43,1.26,0.54c0.11,0.1,0.25,0.17,0.4,0.2c0.47,0.1,0.93-0.21,1.03-0.68C23.41,12.56,23.11,12.1,22.64,12.01z"/>
	<g>
		<circle class="st1" cx="9.7" cy="5.98" r="1.13"/>
		<circle class="st1" cx="13.87" cy="6.28" r="0.85"/>
		<circle class="st1" cx="6.76" cy="9.96" r="1.26"/>
		<circle class="st1" cx="8.4" cy="14.49" r="1.01"/>
		<circle class="st1" cx="13.01" cy="15.31" r="1.14"/>
		<circle class="st1" cx="16.67" cy="13" r="0.73"/>
		<circle class="st1" cx="9.89" cy="9.24" r="0.73"/>
		<path class="st1" d="M13.89,11.49c0.12,0.43-0.13,0.88-0.56,1c-0.43,0.12-0.88-0.13-1-0.56c-0.12-0.43,0.13-0.88,0.56-1
			C13.32,10.81,13.77,11.06,13.89,11.49z"/>
		<circle class="st1" cx="17.14" cy="9.23" r="1.26"/>
	</g>
</g>
</svg>
